<svg width="499" height="490" viewBox="0 0 499 490" fill="none" xmlns="http://www.w3.org/2000/svg">
<path d="M433.885 161.502C433.885 226.92 400.796 253.025 359.983 253.025C319.171 253.025 286.081 226.92 286.081 161.502C286.081 96.0828 319.171 -1.52588e-05 359.994 -1.52588e-05C400.817 -1.52588e-05 433.885 96.0932 433.885 161.502Z" fill="#18DADE"/>
<path opacity="0.5" d="M433.885 161.502C433.885 226.92 400.796 253.025 359.983 253.025C319.171 253.025 286.081 226.92 286.081 161.502C286.081 96.0828 319.171 -1.52588e-05 359.994 -1.52588e-05C400.817 -1.52588e-05 433.885 96.0932 433.885 161.502Z" fill="white"/>
<path d="M349.439 443.765H369.101L361.576 174.7L362.231 183.235L401.785 135.469L361.534 173.482L360.119 122.625L377.158 102.63L359.921 115.558L359.244 91.4301L357.954 137.624L338.344 125.019L357.808 143.089L349.439 443.765Z" fill="#BABABA"/>
<path d="M355.507 214.586L321.179 191.447L355.507 222.798V214.586Z" fill="#BABABA"/>
<g opacity="0.3">
<path d="M210.618 13.0525C204.74 17.38 200.193 23.2686 197.493 30.0499C197.493 30.0499 194.089 22.7638 180.984 26.4173C167.88 30.0708 165.226 38.9078 165.226 38.9078C165.226 38.9078 161.531 33.7034 154.026 36.3056C146.521 38.9078 145.345 47.2035 145.345 47.2035H252.981" stroke="black" stroke-width="0.807072" stroke-linecap="round" stroke-linejoin="round"/>
<path d="M260.496 47.2035H296.573C296.573 47.2035 294.137 34.713 286.81 29.5087C279.482 24.3043 265.992 28.9987 265.992 28.9987C265.992 28.9987 263.39 10.263 234.985 7.14036C228.5 6.29223 221.906 7.2578 215.937 9.9299" stroke="black" stroke-width="0.807072" stroke-linecap="round" stroke-linejoin="round"/>
<path d="M442.212 248.508C440.055 250.763 438.355 253.414 437.205 256.315C437.205 256.315 435.124 251.808 426.974 254.056C418.824 256.304 417.221 261.779 417.221 261.779C417.221 261.779 414.931 258.563 410.278 260.176C405.625 261.79 404.917 266.931 404.917 266.931H451.163" stroke="black" stroke-width="0.807072" stroke-linecap="round" stroke-linejoin="round"/>
<path d="M459.292 266.911H498.565C498.565 266.911 497.066 259.187 492.517 255.971C487.968 252.755 479.61 255.648 479.61 255.648C479.61 255.648 477.997 244.063 460.406 242.117C456.665 241.64 452.865 242.124 449.363 243.522" stroke="black" stroke-width="0.807072" stroke-linecap="round" stroke-linejoin="round"/>
<path d="M159.157 7.27568C149.633 6.23481 146.594 14.9469 146.594 14.9469C146.594 14.9469 145.449 12.5113 141.046 13.7291C136.643 14.9469 135.769 17.8926 135.769 17.8926C135.322 17.3587 134.714 16.9847 134.036 16.8269C133.359 16.6692 132.648 16.7363 132.011 17.0182C131.253 17.3281 130.588 17.828 130.079 18.4697C129.571 19.1115 129.236 19.8734 129.107 20.6821H179.829C179.829 20.6821 179.017 16.5186 176.55 14.7491C174.083 12.9797 169.566 14.5826 169.566 14.5826C169.311 13.3708 168.749 12.2451 167.932 11.3143" stroke="black" stroke-width="0.807072" stroke-linecap="round" stroke-linejoin="round"/>
</g>
<path d="M115.795 335.848C127.91 335.848 158.023 312.136 158.023 312.136C158.023 312.136 157.315 397.124 156.982 411.904C156.67 424.946 153.859 438.269 153.942 443.765H300.851C301.193 441.781 301.193 439.753 300.851 437.77C299.425 428.537 292.295 330.612 292.295 328.395C292.295 326.178 292.295 310.7 291.587 308.067C290.879 305.433 313.675 326.917 323.646 327.656C333.618 328.395 350.011 311.762 349.304 299.937C348.596 288.113 318.306 264.839 307.971 254.493C297.635 244.147 284.103 236.018 273.414 233.061C262.724 230.105 246.351 230.105 246.351 230.105L176.571 239.713C176.571 239.713 160.542 240.452 151.986 243.408C143.43 246.364 106.042 309.534 104.969 318.767C103.897 327.999 103.71 335.848 115.795 335.848Z" fill="#18DADE" stroke="#263238" stroke-width="0.807072" stroke-linecap="round" stroke-linejoin="round"/>
<path d="M151.611 280.692L158.023 309.191L149.477 293.515" stroke="#263238" stroke-width="0.807072" stroke-linecap="round" stroke-linejoin="round"/>
<path d="M219.299 266.442C219.299 266.442 219.299 307.036 220.725 308.077C222.151 309.118 225.711 310.211 225.711 307.723C225.711 305.236 222.505 264.621 222.505 264.621C222.177 264.47 221.819 264.399 221.459 264.415C221.099 264.43 220.748 264.531 220.434 264.709C220.121 264.887 219.855 265.137 219.657 265.438C219.46 265.74 219.337 266.084 219.299 266.442Z" fill="white" stroke="#263238" stroke-width="0.807072" stroke-linecap="round" stroke-linejoin="round"/>
<path d="M201.552 217.636C201.552 217.636 195.827 218.344 188.021 223.329C180.214 228.315 173.063 240.431 173.063 240.431C173.063 240.431 193.371 247.561 199.783 250.767C206.194 253.973 220.798 263.59 220.798 263.59C220.798 263.59 237.181 251.1 242.885 248.269C248.589 245.437 269.948 233.311 269.948 233.311C269.948 233.311 265.67 225.109 254.626 219.78C243.583 214.451 227.199 216.574 226.127 216.574C225.055 216.574 201.552 217.636 201.552 217.636Z" fill="#18DADE" stroke="#263238" stroke-width="0.807072" stroke-linecap="round" stroke-linejoin="round"/>
<path d="M195.963 202.283C195.963 202.283 195.078 237.579 195.432 240.077C195.786 242.575 220.007 262.164 220.007 262.164C220.007 262.164 242.458 239.723 242.458 238.651C242.458 237.579 239.96 206.592 239.96 206.592L195.963 202.283Z" fill="white" stroke="#263238" stroke-width="0.807072" stroke-linecap="round" stroke-linejoin="round"/>
<path d="M226.065 216.564L233.684 213.545L199.47 202.626L195.983 202.283C195.983 202.283 195.64 216.179 195.463 227.149L226.065 216.564Z" fill="#263238" stroke="#263238" stroke-width="0.807072" stroke-linecap="round" stroke-linejoin="round"/>
<path d="M242.802 118.514C242.802 118.514 242.489 109.604 228.354 105.909C214.219 102.214 179.798 109.291 174.229 123.739C168.66 138.186 178.226 137.27 178.226 137.27C178.226 137.27 164.695 148.335 169.316 156.943C173.938 165.551 180.089 166.165 180.089 166.165C180.089 166.165 180.683 169.881 183.139 171.369C185.199 172.756 187.151 174.298 188.978 175.98L189.592 161.533L221.558 145.243L240.616 163.375L246.455 177.208C246.455 177.208 250.452 175.98 251.066 174.138C251.68 172.295 251.368 166.758 254.751 163.073C258.134 159.389 258.446 143.703 258.446 143.703C258.446 143.703 264.587 138.498 262.433 128.641C260.278 118.784 246.143 118.503 246.143 118.503C246.143 118.503 250.14 113.892 246.767 114.204C243.395 114.517 242.802 118.514 242.802 118.514Z" fill="#263238" stroke="#263238" stroke-width="0.807072" stroke-linecap="round" stroke-linejoin="round"/>
<path d="M185.637 172.889C185.637 172.889 176.155 168.371 175.707 177.396C175.26 186.42 188.801 190.927 188.801 190.927L185.637 172.889Z" fill="white" stroke="#263238" stroke-width="0.807072" stroke-linecap="round" stroke-linejoin="round"/>
<path d="M247.132 172.889C247.132 172.889 256.614 168.371 257.062 177.396C257.509 186.42 243.968 190.927 243.968 190.927L247.132 172.889Z" fill="white" stroke="#263238" stroke-width="0.807072" stroke-linecap="round" stroke-linejoin="round"/>
<path d="M214.99 136.313C214.99 136.313 190.154 157.536 188.343 157.952C186.966 158.326 185.61 158.778 184.284 159.305C184.284 159.305 187.896 196.329 192.861 205.364C197.826 214.399 214.084 220.717 220.402 220.717C226.72 220.717 242.073 210.308 244.342 203.105C246.611 195.902 247.048 169.693 247.048 169.693L243.437 156.599C243.437 156.599 242.084 152.987 234.86 145.316C227.636 137.645 226.283 134.907 226.283 134.907C226.283 134.907 218.154 142.579 212.283 143.932C206.413 145.285 214.99 136.313 214.99 136.313Z" fill="white" stroke="#263238" stroke-width="0.807072" stroke-linecap="round" stroke-linejoin="round"/>
<path d="M220.048 164.197C220.048 164.197 221.381 178.541 222.047 182.933C222.713 187.326 224.722 191.937 221.714 192.301C218.706 192.665 215.375 192.967 214.376 190.303" stroke="#263238" stroke-width="0.807072" stroke-linecap="round" stroke-linejoin="round"/>
<path d="M223.129 202.2C223.138 202.739 222.985 203.268 222.692 203.72C222.398 204.172 221.977 204.527 221.481 204.739C220.986 204.951 220.438 205.011 219.909 204.911C219.379 204.811 218.891 204.555 218.507 204.177C218.123 203.799 217.86 203.315 217.752 202.787C217.643 202.259 217.695 201.71 217.899 201.212C218.103 200.713 218.451 200.286 218.899 199.986C219.347 199.685 219.874 199.525 220.413 199.525C220.767 199.522 221.118 199.589 221.446 199.722C221.774 199.855 222.073 200.051 222.325 200.299C222.577 200.548 222.778 200.844 222.916 201.17C223.054 201.496 223.127 201.846 223.129 202.2Z" fill="#263238"/>
<path d="M230.301 171.078C230.301 173.399 229.083 175.241 227.584 175.241C226.085 175.241 224.867 173.347 224.867 171.078C224.867 168.808 226.085 166.862 227.584 166.862C229.083 166.862 230.301 168.746 230.301 171.078Z" fill="#263238"/>
<path d="M225.284 174.762C225.284 174.762 228.042 182.132 235.11 182.444" stroke="#263238" stroke-width="0.807072" stroke-linecap="round" stroke-linejoin="round"/>
<path d="M208.068 172.91C205.537 172.221 202.868 172.215 200.334 172.894C197.8 173.572 195.49 174.91 193.642 176.771" stroke="#263238" stroke-width="1.61414" stroke-linecap="round" stroke-linejoin="round"/>
<path d="M208.682 175.647C208.682 175.647 204.071 185.483 194.235 181.184" stroke="#263238" stroke-width="0.807072" stroke-linecap="round" stroke-linejoin="round"/>
<path d="M191.476 174.45C191.476 174.45 192.392 169.839 197.93 166.768" stroke="#263238" stroke-width="0.807072" stroke-linecap="round" stroke-linejoin="round"/>
<path d="M209.879 155.09C209.879 155.09 211.534 156.318 206.496 158.774C203.373 160.315 198.856 160.648 195.4 162.032" stroke="#263238" stroke-width="0.807072" stroke-linecap="round" stroke-linejoin="round"/>
<path d="M220.673 153.862C220.673 153.862 220.361 156.62 224.056 157.859C226.762 158.754 233.278 159.826 237.524 163.49" fill="white"/>
<path d="M220.673 153.862C220.673 153.862 220.361 156.62 224.056 157.859C226.762 158.754 233.278 159.826 237.524 163.49" stroke="#263238" stroke-width="0.807072" stroke-linecap="round" stroke-linejoin="round"/>
<path d="M261.298 250.007C261.298 250.007 254.886 241.024 252.003 233.977C249.12 226.931 246.684 226.785 243.801 223.902C240.918 221.019 240.991 221.487 240.991 221.487L241.969 233.405L243.01 239.151C243.01 239.151 239.148 244.24 234.34 244.24C229.531 244.24 216.707 238.464 212.211 234.612C207.714 230.761 207.402 234.612 207.402 235.903C207.651 237.443 208.081 238.949 208.682 240.389C208.682 240.389 202.593 239.744 202.916 242.627C203.238 245.51 209.005 250.33 209.005 250.33C209.005 250.33 203.873 252.567 207.079 256.419C210.285 260.27 218.31 266.359 219.913 267.317C221.516 268.274 226.325 269.242 226.325 269.242C225.127 270.079 223.767 270.654 222.332 270.93C220.897 271.206 219.421 271.177 217.998 270.845C213.501 269.565 212.866 275.009 215.427 275.977C217.988 276.945 225.045 278.86 230.821 277.257C236.598 275.654 249.099 272.125 249.099 272.125C249.099 272.125 278.421 295.295 279.836 297.106C281.252 298.917 301.57 318.486 306.201 322.399C310.833 326.313 317.245 330.591 326.863 331.309C336.48 332.028 346.462 328.103 349.668 318.819C352.874 309.534 354.654 296.732 346.816 289.602C338.978 282.472 317.245 276.424 310.125 273.572C303.006 270.72 297.312 269.325 291.973 266.078C286.633 262.83 261.298 250.007 261.298 250.007Z" fill="white" stroke="#263238" stroke-width="0.807072" stroke-linecap="round" stroke-linejoin="round"/>
<path d="M208.713 240.389C208.713 240.389 222.827 252.88 224.43 254.17C226.033 255.461 234.048 257.064 234.048 257.064" stroke="#263238" stroke-width="0.807072" stroke-linecap="round" stroke-linejoin="round"/>
<path d="M209.036 250.33C209.036 250.33 218.019 259.947 221.859 262.185C224.803 263.743 227.928 264.929 231.165 265.714" stroke="#263238" stroke-width="0.807072" stroke-linecap="round" stroke-linejoin="round"/>
<path d="M346.837 289.591C338.999 282.472 317.266 276.414 310.146 273.562C309.178 273.177 308.252 272.823 307.346 272.521C307.148 277.404 305.785 282.168 303.37 286.417C299.321 294.098 292.597 300.874 287.84 305.09C294.523 311.574 303.36 319.985 306.222 322.399C310.854 326.324 317.266 330.591 326.883 331.309C336.501 332.028 346.483 328.103 349.689 318.819C352.895 309.534 354.675 296.721 346.837 289.591Z" fill="#18DADE" stroke="#263238" stroke-width="0.807072" stroke-linecap="round" stroke-linejoin="round"/>
<path d="M317.266 278.548C317.266 278.548 317.62 303.528 296.604 311.325" stroke="#263238" stroke-width="0.807072" stroke-linecap="round" stroke-linejoin="round"/>
<path d="M226.356 269.242L231.477 270.522" stroke="#263238" stroke-width="0.807072" stroke-linecap="round" stroke-linejoin="round"/>
<path d="M131.574 219.707C131.574 219.707 124.829 207.008 124.829 204.448C124.829 201.887 123.903 201.533 121.977 196.725C120.052 191.916 115.565 189.355 117.814 187.107C120.062 184.859 126.463 186.462 127.109 187.752C127.754 189.043 130.96 196.079 130.96 196.079L135.769 191.593C135.769 191.593 139.61 176.209 141.535 171.4C143.461 166.591 146.989 161.783 148.592 164.988C150.195 168.194 147.312 175.886 147.312 175.886L145.345 184.859L148.551 181.653C148.551 181.653 151.486 175.408 152.714 171.608C153.942 167.809 156.669 159.43 157.638 157.827C158.606 156.224 163.612 156.786 163.289 161.273C162.967 165.759 156.399 187.357 156.399 187.357C158.151 184.34 160.128 181.459 162.311 178.738C164.872 175.855 168.379 170.11 170.94 168.194C173.5 166.279 175.103 168.507 175.103 171.078C175.103 173.649 171.575 179.405 169.972 181.653C168.369 183.901 163.237 193.841 163.237 193.841C163.237 193.841 168.046 194.164 170.607 192.873C173.167 191.583 181.192 187.43 182.473 189.99C183.753 192.551 183.43 194.476 181.192 195.444C178.955 196.412 174.781 198.328 172.21 199.296C169.639 200.264 165.163 204.104 165.163 204.104C165.163 204.104 161.083 218.677 155.951 223.881C152.886 226.938 150.199 230.353 147.947 234.05C147.947 234.05 142.597 302.81 140.463 311.356C138.329 319.901 137.257 329.165 124.434 333.797C111.61 338.429 106.624 335.213 101.639 328.801C96.6529 322.389 93.8009 304.569 96.6529 293.526C99.5048 282.482 131.574 219.707 131.574 219.707Z" fill="white" stroke="#263238" stroke-width="0.807072" stroke-linecap="round" stroke-linejoin="round"/>
<path d="M124.184 283.898C113.879 283.637 108.508 278.693 104.72 275.8C100.691 283.658 97.5687 290.32 96.7569 293.494C93.9049 304.538 96.7569 322.358 101.743 328.77C106.728 335.181 111.714 338.398 124.538 333.766C137.361 329.134 138.433 319.881 140.567 311.325C141.41 307.942 142.763 295.108 144.085 280.837C138.142 282.524 130.773 284.064 124.184 283.898Z" fill="#18DADE" stroke="#263238" stroke-width="0.807072" stroke-linecap="round" stroke-linejoin="round"/>
<path d="M100.671 290.643C100.671 290.643 110.288 305.985 141.639 296.367" stroke="#263238" stroke-width="0.807072" stroke-linecap="round" stroke-linejoin="round"/>
<path d="M125.86 267.004C125.761 267.957 125.389 268.861 124.787 269.606C124.185 270.352 123.38 270.907 122.47 271.204C121.559 271.501 120.582 271.528 119.656 271.282C118.73 271.035 117.896 270.525 117.254 269.814C116.612 269.103 116.19 268.222 116.039 267.276C115.888 266.33 116.014 265.36 116.403 264.485C116.791 263.609 117.426 262.865 118.228 262.342C119.031 261.819 119.968 261.541 120.926 261.54C121.609 261.574 122.278 261.743 122.896 262.037C123.513 262.33 124.067 262.742 124.525 263.25C124.983 263.757 125.337 264.35 125.566 264.994C125.795 265.638 125.895 266.321 125.86 267.004Z" fill="#18DADE"/>
<path opacity="0.69" d="M125.86 267.004C125.761 267.957 125.389 268.861 124.787 269.606C124.185 270.352 123.38 270.907 122.47 271.204C121.559 271.501 120.582 271.528 119.656 271.282C118.73 271.035 117.896 270.525 117.254 269.814C116.612 269.103 116.19 268.222 116.039 267.276C115.888 266.33 116.014 265.36 116.403 264.485C116.791 263.609 117.426 262.865 118.228 262.342C119.031 261.819 119.968 261.541 120.926 261.54C121.609 261.574 122.278 261.743 122.896 262.037C123.513 262.33 124.067 262.742 124.525 263.25C124.983 263.757 125.337 264.35 125.566 264.994C125.795 265.638 125.895 266.321 125.86 267.004Z" fill="white"/>
<path d="M130.97 255.763C132.431 255.763 133.614 254.453 133.614 252.838C133.614 251.223 132.431 249.913 130.97 249.913C129.51 249.913 128.327 251.223 128.327 252.838C128.327 254.453 129.51 255.763 130.97 255.763Z" fill="#18DADE"/>
<path opacity="0.69" d="M130.97 255.763C132.431 255.763 133.614 254.453 133.614 252.838C133.614 251.223 132.431 249.913 130.97 249.913C129.51 249.913 128.327 251.223 128.327 252.838C128.327 254.453 129.51 255.763 130.97 255.763Z" fill="white"/>
<path d="M136.956 262.664C136.903 263.174 136.704 263.659 136.382 264.059C136.06 264.458 135.629 264.756 135.141 264.916C134.653 265.075 134.13 265.09 133.634 264.958C133.138 264.827 132.691 264.554 132.346 264.173C132.002 263.792 131.776 263.32 131.695 262.813C131.613 262.306 131.681 261.787 131.889 261.318C132.097 260.848 132.436 260.449 132.867 260.169C133.297 259.889 133.799 259.74 134.312 259.739C135.05 259.777 135.743 260.106 136.239 260.654C136.735 261.203 136.993 261.926 136.956 262.664Z" fill="#18DADE"/>
<path opacity="0.69" d="M136.956 262.664C136.903 263.174 136.704 263.659 136.382 264.059C136.06 264.458 135.629 264.756 135.141 264.916C134.653 265.075 134.13 265.09 133.634 264.958C133.138 264.827 132.691 264.554 132.346 264.173C132.002 263.792 131.776 263.32 131.695 262.813C131.613 262.306 131.681 261.787 131.889 261.318C132.097 260.848 132.436 260.449 132.867 260.169C133.297 259.889 133.799 259.74 134.312 259.739C135.05 259.777 135.743 260.106 136.239 260.654C136.735 261.203 136.993 261.926 136.956 262.664Z" fill="white"/>
<path d="M238.44 224.36C238.39 224.871 238.192 225.357 237.871 225.758C237.55 226.159 237.12 226.458 236.632 226.62C236.144 226.781 235.62 226.797 235.123 226.666C234.627 226.536 234.178 226.263 233.833 225.883C233.488 225.502 233.261 225.03 233.179 224.523C233.097 224.015 233.164 223.495 233.372 223.026C233.58 222.556 233.919 222.156 234.35 221.876C234.78 221.595 235.283 221.446 235.797 221.445C236.532 221.486 237.222 221.814 237.717 222.36C238.212 222.905 238.472 223.624 238.44 224.36Z" fill="#18DADE"/>
<path opacity="0.69" d="M238.44 224.36C238.39 224.871 238.192 225.357 237.871 225.758C237.55 226.159 237.12 226.458 236.632 226.62C236.144 226.781 235.62 226.797 235.123 226.666C234.627 226.536 234.178 226.263 233.833 225.883C233.488 225.502 233.261 225.03 233.179 224.523C233.097 224.015 233.164 223.495 233.372 223.026C233.58 222.556 233.919 222.156 234.35 221.876C234.78 221.595 235.283 221.446 235.797 221.445C236.532 221.486 237.222 221.814 237.717 222.36C238.212 222.905 238.472 223.624 238.44 224.36Z" fill="white"/>
<path d="M231.217 238.214C232.677 238.214 233.861 236.904 233.861 235.289C233.861 233.674 232.677 232.364 231.217 232.364C229.757 232.364 228.573 233.674 228.573 235.289C228.573 236.904 229.757 238.214 231.217 238.214Z" fill="#18DADE"/>
<path opacity="0.69" d="M231.217 238.214C232.677 238.214 233.861 236.904 233.861 235.289C233.861 233.674 232.677 232.364 231.217 232.364C229.757 232.364 228.573 233.674 228.573 235.289C228.573 236.904 229.757 238.214 231.217 238.214Z" fill="white"/>
<path d="M226.356 230.813C228.638 230.813 230.488 228.767 230.488 226.244C230.488 223.72 228.638 221.674 226.356 221.674C224.074 221.674 222.224 223.72 222.224 226.244C222.224 228.767 224.074 230.813 226.356 230.813Z" fill="#18DADE"/>
<path opacity="0.69" d="M226.356 230.813C228.638 230.813 230.488 228.767 230.488 226.244C230.488 223.72 228.638 221.674 226.356 221.674C224.074 221.674 222.224 223.72 222.224 226.244C222.224 228.767 224.074 230.813 226.356 230.813Z" fill="white"/>
<path d="M287.528 371.768L332.484 444.171" stroke="#263238" stroke-width="0.807072" stroke-linecap="round" stroke-linejoin="round"/>
<path d="M277.723 373.319C277.723 373.319 263.037 382.27 257.437 385.07C251.837 387.87 251.493 389.962 257.093 392.065C262.693 394.168 271.082 387.516 274.58 382.968C278.077 378.419 280.534 374.568 280.534 374.568L277.723 373.319Z" fill="white" stroke="#263238" stroke-width="0.807072" stroke-linecap="round" stroke-linejoin="round"/>
<path d="M280.533 374.568C280.533 374.568 274.934 385.07 272.488 388.922C270.041 392.773 271.79 396.614 274.236 396.968C276.682 397.321 282.98 396.614 283.687 392.419C284.395 388.224 284.385 375.276 284.385 375.276L280.533 374.568Z" fill="white" stroke="#263238" stroke-width="0.807072" stroke-linecap="round" stroke-linejoin="round"/>
<path d="M284.384 372.819C284.384 372.819 284.031 393.814 284.728 394.865C285.425 395.916 290.973 396.27 294.179 392.419C297.385 388.568 289.277 372.122 289.277 372.122L284.384 372.819Z" fill="white" stroke="#263238" stroke-width="0.807072" stroke-linecap="round" stroke-linejoin="round"/>
<path d="M287.528 371.768C287.528 371.768 297.313 389.619 298.353 389.962C299.394 390.306 307.451 385.414 308.158 383.322C308.866 381.23 292.108 370.727 292.108 370.727C290.544 370.881 289.005 371.23 287.528 371.768Z" fill="white" stroke="#263238" stroke-width="0.807072" stroke-linecap="round" stroke-linejoin="round"/>
<path d="M292.108 370.727C292.108 370.727 305.754 384.373 308.21 383.322C310.667 382.27 315.205 377.722 313.8 375.973C312.394 374.224 295.959 368.625 295.959 368.625L292.108 370.727Z" fill="white" stroke="#263238" stroke-width="0.807072" stroke-linecap="round" stroke-linejoin="round"/>
<path d="M294.533 369.676C294.533 369.676 295.231 366.876 297.333 366.876C299.436 366.876 318.317 367.573 318.317 369.322C318.317 370.821 314.757 376.129 313.706 377.649L313.425 378.065L294.533 369.676Z" fill="white" stroke="#263238" stroke-width="0.807072" stroke-linecap="round" stroke-linejoin="round"/>
<path d="M295.574 366.876C295.574 366.876 317.276 369.676 319.368 366.876C320.076 365.756 320.465 364.464 320.493 363.139C320.539 362.474 320.425 361.807 320.16 361.194C319.894 360.582 319.486 360.043 318.969 359.621C318.452 359.2 317.841 358.909 317.187 358.773C316.534 358.637 315.858 358.66 315.215 358.84C308.387 360.808 296.667 364.19 295.928 364.44C294.877 364.773 295.574 366.876 295.574 366.876Z" fill="white" stroke="#263238" stroke-width="0.807072" stroke-linecap="round" stroke-linejoin="round"/>
<path d="M292.784 365.086C292.784 365.086 309.574 359.486 312.728 358.08C313.446 357.745 314.086 357.262 314.606 356.663C315.126 356.064 315.514 355.362 315.745 354.603C315.975 353.844 316.044 353.045 315.945 352.258C315.847 351.471 315.584 350.713 315.174 350.035C313.425 347.589 306.076 350.388 302.923 353.532C299.769 356.675 290.026 365.471 290.026 365.471L292.784 365.086Z" fill="white" stroke="#263238" stroke-width="0.807072" stroke-linecap="round" stroke-linejoin="round"/>
<path d="M290.026 365.471C290.026 365.471 302.621 353.574 302.964 352.179C303.308 350.784 301.215 351.138 295.969 352.179C290.723 353.22 287.643 363.222 286.602 365.398C285.561 367.573 290.026 365.471 290.026 365.471Z" fill="white" stroke="#263238" stroke-width="0.807072" stroke-linecap="round" stroke-linejoin="round"/>
<path d="M287.528 367.927C287.528 367.927 290.328 353.23 287.528 352.179C284.728 351.128 280.533 352.876 280.887 357.779C281.241 362.681 283.333 370.373 285.436 371.071C287.538 371.768 287.528 367.927 287.528 367.927Z" fill="white" stroke="#263238" stroke-width="0.807072" stroke-linecap="round" stroke-linejoin="round"/>
<path d="M284.728 368.978C284.728 368.978 279.836 359.881 277.733 356.374C275.631 352.866 271.79 354.625 270.031 358.122C268.272 361.619 280.887 372.819 282.636 372.819C284.385 372.819 284.728 368.978 284.728 368.978Z" fill="white" stroke="#263238" stroke-width="0.807072" stroke-linecap="round" stroke-linejoin="round"/>
<path d="M285.436 371.071C285.436 371.071 286.133 374.922 280.533 374.568C274.933 374.214 257.759 367.927 257.759 365.086C257.861 364.122 258.216 363.202 258.788 362.419C259.36 361.636 260.128 361.018 261.015 360.627C261.902 360.236 262.877 360.087 263.84 360.193C264.804 360.3 265.722 360.659 266.502 361.234C271.051 364.357 283.999 371.029 283.999 371.029L285.436 371.071Z" fill="white" stroke="#263238" stroke-width="0.807072" stroke-linecap="round" stroke-linejoin="round"/>
<path d="M280.533 373.173C280.533 373.173 269.687 373.173 260.59 370.051C251.493 366.928 248.693 369.353 247.996 372.507C247.298 375.661 260.59 377.711 270.031 377.711C279.472 377.711 285.436 373.527 280.533 373.173Z" fill="white" stroke="#263238" stroke-width="0.807072" stroke-linecap="round" stroke-linejoin="round"/>
<path d="M278.785 373.871C278.785 373.871 259.185 377.722 253.596 378.419C248.006 379.117 249.047 382.968 252.19 385.07C255.334 387.173 267.585 382.989 274.236 379.47C280.887 375.952 280.887 373.527 278.785 373.871Z" fill="white" stroke="#263238" stroke-width="0.807072" stroke-linecap="round" stroke-linejoin="round"/>
<path d="M274.85 374.245C275.829 376.868 281.439 377.212 287.341 375.016C293.242 372.819 297.323 368.895 296.355 366.272C295.387 363.649 289.766 363.295 283.864 365.492C277.962 367.688 273.882 371.612 274.85 374.245Z" fill="#18DADE" stroke="#263238" stroke-width="0.807072" stroke-linecap="round" stroke-linejoin="round"/>
<path d="M318.577 422.229C318.577 422.229 311.031 415.766 304.005 413.34C296.979 410.915 288.392 413.882 281.626 417.379C274.861 420.876 257.374 426.82 257.374 426.82C257.374 426.82 269.5 432.211 278.93 432.472C288.361 432.732 318.577 422.229 318.577 422.229Z" fill="#263238" stroke="#263238" stroke-width="0.807072" stroke-linecap="round" stroke-linejoin="round"/>
<path d="M325.582 432.742C325.733 427.847 326.733 423.015 328.538 418.461C331.505 411.175 344.443 402.848 345.255 402.016C346.067 401.183 347.951 412.529 339.322 423.041C330.693 433.554 325.582 432.742 325.582 432.742Z" fill="#263238" stroke="#263238" stroke-width="0.807072" stroke-linecap="round" stroke-linejoin="round"/>
<path d="M312.925 412.529C312.925 412.529 312.124 408.49 313.966 401.214C315.808 393.939 321.814 379.658 321.814 379.658C321.814 379.658 325.051 391.243 322.626 399.872C321.049 405.135 317.597 409.637 312.925 412.529Z" fill="#263238" stroke="#263238" stroke-width="0.807072" stroke-linecap="round" stroke-linejoin="round"/>
<path d="M362.377 380.896L365.625 443.755" stroke="#263238" stroke-width="0.807072" stroke-linecap="round" stroke-linejoin="round"/>
<path d="M355.716 381.396C355.716 381.396 341.029 390.337 335.44 393.189C329.85 396.041 329.486 398.092 335.086 400.184C340.686 402.276 349.085 395.635 352.583 391.087C356.08 386.538 358.526 382.697 358.526 382.697L355.716 381.396Z" fill="white" stroke="#263238" stroke-width="0.807072" stroke-linecap="round" stroke-linejoin="round"/>
<path d="M358.526 382.645C358.526 382.645 352.936 393.137 350.48 396.988C348.023 400.84 349.783 404.68 352.229 405.034C354.675 405.388 360.982 404.68 361.68 400.486C362.377 396.291 362.377 383.342 362.377 383.342L358.526 382.645Z" fill="white" stroke="#263238" stroke-width="0.807072" stroke-linecap="round" stroke-linejoin="round"/>
<path d="M362.377 380.896C362.377 380.896 362.034 401.891 362.731 402.932C363.429 403.973 368.976 404.337 372.172 400.486C375.367 396.634 367.28 380.189 367.28 380.189L362.377 380.896Z" fill="white" stroke="#263238" stroke-width="0.807072" stroke-linecap="round" stroke-linejoin="round"/>
<path d="M365.531 379.845C365.531 379.845 375.378 397.686 376.419 398.04C377.459 398.394 385.516 393.491 386.213 391.388C386.911 389.286 370.121 378.794 370.121 378.794C368.553 378.95 367.011 379.303 365.531 379.845Z" fill="white" stroke="#263238" stroke-width="0.807072" stroke-linecap="round" stroke-linejoin="round"/>
<path d="M370.08 378.794C370.08 378.794 383.725 392.44 386.171 391.388C388.618 390.337 393.166 385.789 391.771 384.04C390.377 382.291 373.931 376.691 373.931 376.691L370.08 378.794Z" fill="white" stroke="#263238" stroke-width="0.807072" stroke-linecap="round" stroke-linejoin="round"/>
<path d="M372.526 377.743C372.526 377.743 373.223 374.943 375.326 374.943C377.428 374.943 396.32 375.64 396.32 377.389C396.32 378.888 392.75 384.196 391.709 385.716L391.417 386.132L372.526 377.743Z" fill="white" stroke="#263238" stroke-width="0.807072" stroke-linecap="round" stroke-linejoin="round"/>
<path d="M373.577 374.943C373.577 374.943 395.269 377.743 397.371 374.943C398.142 373.693 398.536 372.247 398.506 370.779C398.535 370.151 398.413 369.525 398.151 368.953C397.889 368.381 397.494 367.88 396.999 367.492C396.504 367.104 395.923 366.84 395.305 366.722C394.687 366.604 394.05 366.635 393.447 366.813C386.64 368.77 374.711 372.226 373.931 372.476C372.879 372.84 373.577 374.943 373.577 374.943Z" fill="white" stroke="#263238" stroke-width="0.807072" stroke-linecap="round" stroke-linejoin="round"/>
<path d="M370.777 373.194C370.777 373.194 387.577 367.594 390.72 366.199C391.439 365.864 392.079 365.381 392.599 364.782C393.119 364.183 393.506 363.481 393.737 362.722C393.968 361.963 394.036 361.164 393.938 360.377C393.839 359.59 393.577 358.832 393.166 358.153C391.417 355.697 384.069 358.497 380.925 361.651C377.782 364.805 367.977 373.548 367.977 373.548L370.777 373.194Z" fill="white" stroke="#263238" stroke-width="0.807072" stroke-linecap="round" stroke-linejoin="round"/>
<path d="M367.977 373.548C367.977 373.548 380.572 361.651 380.926 360.246C381.28 358.84 379.177 359.205 373.931 360.246C368.685 361.286 365.604 371.289 364.563 373.465C363.522 375.64 367.977 373.548 367.977 373.548Z" fill="white" stroke="#263238" stroke-width="0.807072" stroke-linecap="round" stroke-linejoin="round"/>
<path d="M365.531 375.994C365.531 375.994 368.331 361.297 365.531 360.246C362.731 359.194 358.526 360.943 358.88 365.845C359.234 370.748 361.326 378.44 363.428 379.148C365.531 379.856 365.531 375.994 365.531 375.994Z" fill="white" stroke="#263238" stroke-width="0.807072" stroke-linecap="round" stroke-linejoin="round"/>
<path d="M362.731 377.045C362.731 377.045 357.828 367.948 355.736 364.451C353.644 360.953 349.782 362.702 348.034 366.199C346.285 369.697 358.88 380.896 360.628 380.896C362.377 380.896 362.731 377.045 362.731 377.045Z" fill="white" stroke="#263238" stroke-width="0.807072" stroke-linecap="round" stroke-linejoin="round"/>
<path d="M363.428 379.148C363.428 379.148 364.126 382.989 358.526 382.645C352.926 382.302 335.824 375.994 335.824 373.194C335.928 372.23 336.285 371.31 336.858 370.528C337.431 369.745 338.2 369.127 339.087 368.737C339.975 368.346 340.95 368.197 341.914 368.303C342.878 368.409 343.797 368.768 344.578 369.343C349.127 372.465 362.075 379.148 362.075 379.148H363.428Z" fill="white" stroke="#263238" stroke-width="0.807072" stroke-linecap="round" stroke-linejoin="round"/>
<path d="M358.526 381.24C358.526 381.24 347.68 381.24 338.583 378.117C329.486 374.995 326.686 377.409 325.988 380.563C325.291 383.717 338.583 385.768 348.034 385.768C357.485 385.768 363.428 381.594 358.526 381.24Z" fill="white" stroke="#263238" stroke-width="0.807072" stroke-linecap="round" stroke-linejoin="round"/>
<path d="M356.777 381.937C356.777 381.937 337.188 385.789 331.588 386.486C325.988 387.183 327.04 391.035 330.193 393.137C333.347 395.24 345.588 391.055 352.229 387.537C358.869 384.019 358.88 381.594 356.777 381.937Z" fill="white" stroke="#263238" stroke-width="0.807072" stroke-linecap="round" stroke-linejoin="round"/>
<path d="M352.853 382.312C353.821 384.935 359.432 385.289 365.344 383.082C371.256 380.876 375.326 376.962 374.347 374.339C373.369 371.716 367.769 371.362 361.857 373.569C355.945 375.775 351.875 379.658 352.853 382.312Z" fill="#18DADE" stroke="#263238" stroke-width="0.807072" stroke-linecap="round" stroke-linejoin="round"/>
<path d="M365.479 439.216C366.137 435.146 367.702 431.275 370.059 427.892C373.837 422.771 388.659 413.32 388.659 413.32C388.659 413.32 388.659 428.683 382.997 432.992C377.334 437.301 365.479 439.216 365.479 439.216Z" fill="#263238" stroke="#263238" stroke-width="0.807072" stroke-linecap="round" stroke-linejoin="round"/>
<path d="M364.667 427.892C364.667 427.892 364.938 425.196 360.629 420.075C356.319 414.954 343.912 409.031 343.912 409.031C343.912 409.031 346.879 417.358 349.845 421.428C352.812 425.498 364.667 427.892 364.667 427.892Z" fill="#263238" stroke="#263238" stroke-width="0.807072" stroke-linecap="round" stroke-linejoin="round"/>
<path d="M111.184 396.53L98.9221 443.755" stroke="#263238" stroke-width="0.807072" stroke-linecap="round" stroke-linejoin="round"/>
<path d="M106.135 395.354C106.135 395.354 93.1974 398.539 88.4406 399.299C83.6838 400.059 82.8928 401.516 86.5254 404.389C90.158 407.262 97.975 404.295 101.576 401.745C105.178 399.195 107.926 396.926 107.926 396.926L106.135 395.354Z" fill="white" stroke="#263238" stroke-width="0.807072" stroke-linecap="round" stroke-linejoin="round"/>
<path d="M107.926 396.926C107.926 396.926 101.337 403.379 98.6308 405.659C95.9245 407.938 96.32 411.186 98.0479 412.008C99.7757 412.83 104.595 413.788 106.094 410.853C107.593 407.917 110.611 398.362 110.611 398.362L107.926 396.926Z" fill="white" stroke="#263238" stroke-width="0.807072" stroke-linecap="round" stroke-linejoin="round"/>
<path d="M111.183 396.53C111.183 396.53 105.979 411.966 106.302 412.903C106.624 413.84 110.632 415.412 113.848 413.299C117.064 411.186 114.962 397.155 114.962 397.155L111.183 396.53Z" fill="white" stroke="#263238" stroke-width="0.807072" stroke-linecap="round" stroke-linejoin="round"/>
<path d="M113.755 396.489C113.755 396.489 116.877 411.966 117.523 412.466C118.168 412.966 125.308 411.227 126.318 409.843C127.328 408.459 117.356 396.78 117.356 396.78C116.172 396.533 114.963 396.435 113.755 396.489Z" fill="white" stroke="#263238" stroke-width="0.807072" stroke-linecap="round" stroke-linejoin="round"/>
<path d="M117.356 396.78C117.356 396.78 124.267 410.041 126.318 409.843C128.368 409.645 132.792 407.335 132.168 405.68C131.543 404.025 120.718 396.093 120.718 396.093L117.356 396.78Z" fill="white" stroke="#263238" stroke-width="0.807072" stroke-linecap="round" stroke-linejoin="round"/>
<path d="M119.417 396.572C119.417 396.572 120.583 394.667 122.134 395.156C123.685 395.646 137.487 400.569 137.081 401.86C136.737 402.963 132.855 406.023 131.731 406.949L131.418 407.189L119.417 396.572Z" fill="white" stroke="#263238" stroke-width="0.807072" stroke-linecap="round" stroke-linejoin="round"/>
<path d="M120.843 394.75C120.843 394.75 136.227 401.88 138.434 400.298C139.291 399.558 139.916 398.586 140.234 397.498C140.388 397.041 140.433 396.554 140.367 396.076C140.3 395.598 140.124 395.142 139.852 394.744C139.579 394.345 139.218 394.016 138.797 393.78C138.376 393.545 137.906 393.41 137.424 393.387C131.939 393.241 122.29 393.012 121.676 393.023C120.812 393.033 120.843 394.75 120.843 394.75Z" fill="white" stroke="#263238" stroke-width="0.807072" stroke-linecap="round" stroke-linejoin="round"/>
<path d="M119.177 392.804C119.177 392.804 132.896 392.585 135.55 392.284C136.16 392.203 136.747 391.995 137.271 391.673C137.796 391.351 138.247 390.923 138.596 390.415C138.944 389.908 139.182 389.333 139.294 388.728C139.406 388.123 139.389 387.501 139.245 386.902C138.517 384.685 132.438 385.039 129.378 386.632C126.318 388.224 117.033 392.408 117.033 392.408L119.177 392.804Z" fill="white" stroke="#263238" stroke-width="0.807072" stroke-linecap="round" stroke-linejoin="round"/>
<path d="M117.033 392.408C117.033 392.408 129.118 386.548 129.701 385.601C130.284 384.654 128.66 384.415 124.496 383.967C120.333 383.519 115.795 390.212 114.473 391.545C113.151 392.877 117.033 392.408 117.033 392.408Z" fill="white" stroke="#263238" stroke-width="0.807072" stroke-linecap="round" stroke-linejoin="round"/>
<path d="M114.65 393.647C114.65 393.647 120.146 383.436 118.324 382.01C116.502 380.584 112.984 380.896 112.079 384.602C111.173 388.307 110.955 394.48 112.339 395.489C113.723 396.499 114.65 393.647 114.65 393.647Z" fill="white" stroke="#263238" stroke-width="0.807072" stroke-linecap="round" stroke-linejoin="round"/>
<path d="M112.339 393.772C112.339 393.772 110.84 385.903 110.101 382.832C109.362 379.762 106.114 380.147 104.002 382.322C101.889 384.498 108.592 395.718 109.882 396.124C111.173 396.53 112.339 393.772 112.339 393.772Z" fill="white" stroke="#263238" stroke-width="0.807072" stroke-linecap="round" stroke-linejoin="round"/>
<path d="M112.36 395.489C112.36 395.489 111.985 398.498 107.926 396.926C103.866 395.354 92.6665 386.715 93.3535 384.644C93.6546 383.956 94.1319 383.359 94.7372 382.915C95.3425 382.47 96.0544 382.194 96.8009 382.112C97.5475 382.031 98.3022 382.148 98.989 382.452C99.6758 382.756 100.27 383.235 100.712 383.842C103.346 387.225 111.361 395.156 111.361 395.156L112.36 395.489Z" fill="white" stroke="#263238" stroke-width="0.807072" stroke-linecap="round" stroke-linejoin="round"/>
<path d="M108.259 395.895C103.279 394.252 98.5614 391.904 94.2487 388.922C88.2532 384.467 85.6198 385.622 84.3708 387.787C83.1217 389.952 92.4479 394.605 99.4322 396.811C106.416 399.018 111.798 397.353 108.259 395.895Z" fill="white" stroke="#263238" stroke-width="0.807072" stroke-linecap="round" stroke-linejoin="round"/>
<path d="M106.833 395.999C106.833 395.999 91.4485 394.282 87.1497 393.491C82.8509 392.7 82.726 395.791 84.5579 398.081C86.3899 400.371 96.4343 400.163 102.159 399.122C107.884 398.081 108.436 396.239 106.833 395.999Z" fill="white" stroke="#263238" stroke-width="0.807072" stroke-linecap="round" stroke-linejoin="round"/>
<path d="M103.804 395.365C103.908 397.53 107.967 399.091 112.891 398.851C117.814 398.612 121.696 396.655 121.592 394.49C121.488 392.325 117.429 390.753 112.506 390.993C107.582 391.232 103.71 393.189 103.804 395.365Z" fill="#18DADE" stroke="#263238" stroke-width="0.807072" stroke-linecap="round" stroke-linejoin="round"/>
<path d="M99.8694 440.361C101.304 437.51 103.364 435.019 105.896 433.075C109.883 430.171 123.039 426.653 123.039 426.653C123.039 426.653 119.459 438.009 114.265 439.883C109.071 441.756 99.8694 440.361 99.8694 440.361Z" fill="#263238" stroke="#263238" stroke-width="0.807072" stroke-linecap="round" stroke-linejoin="round"/>
<path d="M101.91 431.805C101.91 431.805 102.742 429.88 100.744 425.092C98.7453 420.304 90.97 413.028 90.97 413.028C90.97 413.028 91.2198 419.887 92.4688 423.572C93.7179 427.257 101.91 431.805 101.91 431.805Z" fill="#263238" stroke="#263238" stroke-width="0.807072" stroke-linecap="round" stroke-linejoin="round"/>
<path d="M76.6059 380.896L73.3584 443.755" stroke="#263238" stroke-width="0.807072" stroke-linecap="round" stroke-linejoin="round"/>
<path d="M71.006 373.548C71.006 373.548 58.4114 361.651 58.0575 360.246C57.7036 358.84 59.8062 359.205 65.0626 360.246C70.319 361.286 73.3896 371.289 74.4304 373.465C75.4713 375.64 71.006 373.548 71.006 373.548Z" fill="white" stroke="#263238" stroke-width="0.807072" stroke-linecap="round" stroke-linejoin="round"/>
<path d="M73.4624 375.994C73.4624 375.994 70.6625 361.297 73.4624 360.246C76.2624 359.194 80.4571 360.943 80.1032 365.845C79.7493 370.748 77.6884 378.44 75.6066 379.148C73.5249 379.856 73.4624 375.994 73.4624 375.994Z" fill="white" stroke="#263238" stroke-width="0.807072" stroke-linecap="round" stroke-linejoin="round"/>
<path d="M76.252 377.045C76.252 377.045 81.1545 367.948 83.257 364.451C85.3596 360.953 89.2004 362.702 90.9491 366.199C92.6977 369.697 80.1032 380.896 78.3545 380.896C76.6058 380.896 76.252 377.045 76.252 377.045Z" fill="white" stroke="#263238" stroke-width="0.807072" stroke-linecap="round" stroke-linejoin="round"/>
<path d="M75.6066 379.148C75.6066 379.148 74.9092 382.989 80.5091 382.645C86.109 382.302 103.252 375.994 103.252 373.194C103.148 372.23 102.791 371.31 102.219 370.528C101.646 369.745 100.877 369.127 99.989 368.737C99.1013 368.346 98.1263 368.197 97.1624 368.303C96.1985 368.409 95.2796 368.768 94.4984 369.343C89.9498 372.465 77.0118 379.148 77.0118 379.148H75.6066Z" fill="white" stroke="#263238" stroke-width="0.807072" stroke-linecap="round" stroke-linejoin="round"/>
<path d="M80.4571 381.24C80.4571 381.24 91.303 381.24 100.4 378.117C109.497 374.995 112.297 377.409 112.995 380.563C113.692 383.717 100.4 385.768 90.9491 385.768C81.498 385.768 75.6066 381.594 80.4571 381.24Z" fill="white" stroke="#263238" stroke-width="0.807072" stroke-linecap="round" stroke-linejoin="round"/>
<path d="M82.2057 381.937C82.2057 381.937 101.795 385.789 107.395 386.486C112.995 387.183 111.943 391.035 108.8 393.137C105.657 395.24 93.4054 391.055 86.7543 387.537C80.1031 384.019 80.1031 381.594 82.2057 381.937Z" fill="white" stroke="#263238" stroke-width="0.807072" stroke-linecap="round" stroke-linejoin="round"/>
<path d="M83.2675 381.396C83.2675 381.396 96.1014 392.846 101.108 396.593C106.115 400.34 106.073 402.484 100.192 403.546C94.3111 404.607 87.2436 396.551 84.579 391.451C81.9143 386.351 80.2385 382.083 80.2385 382.083L83.2675 381.396Z" fill="white" stroke="#263238" stroke-width="0.807072" stroke-linecap="round" stroke-linejoin="round"/>
<path d="M80.4572 382.645C80.4572 382.645 86.0154 393.189 88.5031 396.988C90.9908 400.787 89.2005 404.68 86.7544 405.034C84.3084 405.388 78.0111 404.68 77.3033 400.486C76.5955 396.291 76.6476 383.342 76.6476 383.342L80.4572 382.645Z" fill="white" stroke="#263238" stroke-width="0.807072" stroke-linecap="round" stroke-linejoin="round"/>
<path d="M76.6477 380.896C76.6477 380.896 77.0016 401.891 76.2938 402.932C75.586 403.973 69.9965 404.337 66.8531 400.486C63.7097 396.634 71.7452 380.189 71.7452 380.189L76.6477 380.896Z" fill="white" stroke="#263238" stroke-width="0.807072" stroke-linecap="round" stroke-linejoin="round"/>
<path d="M73.525 379.304C73.525 379.304 65.9058 398.175 64.8962 398.643C63.8866 399.112 55.3306 395.198 54.3834 393.2C53.4362 391.201 68.8827 378.794 68.8827 378.794C70.4454 378.77 72.0049 378.941 73.525 379.304Z" fill="white" stroke="#263238" stroke-width="0.807072" stroke-linecap="round" stroke-linejoin="round"/>
<path d="M68.9034 378.794C68.9034 378.794 58.0263 394.73 55.372 394.157C52.7178 393.585 47.5031 389.952 48.5439 387.985C49.5848 386.018 64.7191 377.451 64.7191 377.451L68.9034 378.794Z" fill="white" stroke="#263238" stroke-width="0.807072" stroke-linecap="round" stroke-linejoin="round"/>
<path d="M66.7384 377.253C66.442 376.605 65.9585 376.061 65.3501 375.69C64.7417 375.319 64.0361 375.138 63.3243 375.172C60.9823 375.442 39.9567 378.492 40.1337 380.012C40.2898 381.313 44.7968 385.466 46.1187 386.663L46.483 386.986L66.7384 377.253Z" fill="white" stroke="#263238" stroke-width="0.807072" stroke-linecap="round" stroke-linejoin="round"/>
<path d="M65.406 374.943C65.406 374.943 43.7142 377.743 41.6117 374.943C40.8407 373.693 40.4468 372.247 40.4771 370.779C40.4498 370.15 40.573 369.524 40.8364 368.952C41.0998 368.381 41.4958 367.88 41.9915 367.492C42.4873 367.105 43.0684 366.841 43.6866 366.723C44.3049 366.604 44.9424 366.636 45.5462 366.813C52.343 368.77 64.2818 372.226 65.0625 372.476C66.1138 372.84 65.406 374.943 65.406 374.943Z" fill="white" stroke="#263238" stroke-width="0.807072" stroke-linecap="round" stroke-linejoin="round"/>
<path d="M68.2061 374.391C68.2061 374.391 51.4168 368.791 48.263 367.396C47.545 367.058 46.9059 366.574 46.387 365.974C45.8681 365.373 45.4808 364.671 45.2503 363.912C45.0198 363.152 44.9511 362.353 45.0487 361.566C45.1463 360.778 45.408 360.02 45.817 359.34C47.5656 356.894 54.9142 359.694 58.0576 362.848C61.201 366.002 71.0061 374.734 71.0061 374.734L68.2061 374.391Z" fill="white" stroke="#263238" stroke-width="0.807072" stroke-linecap="round" stroke-linejoin="round"/>
<path d="M86.1403 382.312C85.1619 384.935 79.5516 385.289 73.6499 383.082C67.7481 380.876 63.6575 376.962 64.6359 374.339C65.6143 371.716 71.2142 371.362 77.1264 373.569C83.0385 375.775 87.1083 379.658 86.1403 382.312Z" fill="#18DADE" stroke="#263238" stroke-width="0.807072" stroke-linecap="round" stroke-linejoin="round"/>
<path d="M73.5249 439.216C72.8726 435.144 71.3068 431.273 68.9451 427.892C65.1667 422.771 50.3447 413.32 50.3447 413.32C50.3447 413.32 50.3447 428.683 56.0071 432.992C61.6694 437.301 73.5249 439.216 73.5249 439.216Z" fill="#263238" stroke="#263238" stroke-width="0.807072" stroke-linecap="round" stroke-linejoin="round"/>
<path d="M74.3161 427.892C74.3161 427.892 74.0455 425.196 78.3547 420.075C82.6639 414.954 95.0711 409.031 95.0711 409.031C95.0711 409.031 92.1046 417.358 89.1381 421.428C86.1716 425.498 74.3161 427.892 74.3161 427.892Z" fill="#263238" stroke="#263238" stroke-width="0.807072" stroke-linecap="round" stroke-linejoin="round"/>
<path d="M422.217 355.947L399.62 442.495" stroke="#263238" stroke-width="0.807072" stroke-linecap="round" stroke-linejoin="round"/>
<path d="M414.306 359.017C414.306 359.017 399.63 367.958 394.03 370.758C388.43 373.558 388.087 375.661 393.687 377.763C399.287 379.866 407.676 373.215 411.173 368.666C414.671 364.118 417.127 360.266 417.127 360.266L414.306 359.017Z" fill="white" stroke="#263238" stroke-width="0.807072" stroke-linecap="round" stroke-linejoin="round"/>
<path d="M417.127 360.266C417.127 360.266 411.527 370.758 409.081 374.61C406.635 378.461 408.373 382.312 410.83 382.656C413.286 382.999 419.573 382.312 420.27 378.107C420.968 373.902 420.978 360.964 420.978 360.964L417.127 360.266Z" fill="white" stroke="#263238" stroke-width="0.807072" stroke-linecap="round" stroke-linejoin="round"/>
<path d="M420.978 358.518C420.978 358.518 420.624 379.512 421.321 380.553C422.019 381.594 427.619 381.958 430.773 378.107C433.926 374.256 425.87 357.81 425.87 357.81L420.978 358.518Z" fill="white" stroke="#263238" stroke-width="0.807072" stroke-linecap="round" stroke-linejoin="round"/>
<path d="M424.122 357.466C424.122 357.466 433.916 375.307 434.967 375.661C436.019 376.015 444.065 371.112 444.762 369.01C445.459 366.907 428.67 356.415 428.67 356.415C427.116 356.576 425.588 356.929 424.122 357.466Z" fill="white" stroke="#263238" stroke-width="0.807072" stroke-linecap="round" stroke-linejoin="round"/>
<path d="M428.67 356.415C428.67 356.415 442.316 370.061 444.762 369.01C447.208 367.958 451.767 363.41 450.362 361.661C448.957 359.912 432.521 354.313 432.521 354.313L428.67 356.415Z" fill="white" stroke="#263238" stroke-width="0.807072" stroke-linecap="round" stroke-linejoin="round"/>
<path d="M431.116 355.364C431.116 355.364 431.824 352.564 433.916 352.564C436.008 352.564 454.911 353.261 454.911 355.02C454.911 356.509 451.351 361.817 450.299 363.347L450.018 363.764L431.116 355.364Z" fill="white" stroke="#263238" stroke-width="0.807072" stroke-linecap="round" stroke-linejoin="round"/>
<path d="M432.168 352.595C432.168 352.595 453.859 355.395 455.962 352.595C456.82 351.148 457.222 349.476 457.117 347.797C457.12 347.24 456.993 346.69 456.746 346.19C456.498 345.691 456.138 345.257 455.693 344.921C455.249 344.586 454.732 344.358 454.184 344.258C453.636 344.157 453.072 344.186 452.538 344.341C445.855 346.267 433.292 349.889 432.522 350.149C431.47 350.513 432.168 352.595 432.168 352.595Z" fill="white" stroke="#263238" stroke-width="0.807072" stroke-linecap="round" stroke-linejoin="round"/>
<path d="M429.368 350.815C429.368 350.815 446.157 345.215 449.28 343.821C452.402 342.426 453.443 338.221 451.736 335.775C450.029 333.329 442.639 336.118 439.485 339.272C436.331 342.426 426.537 351.169 426.537 351.169L429.368 350.815Z" fill="white" stroke="#263238" stroke-width="0.807072" stroke-linecap="round" stroke-linejoin="round"/>
<path d="M426.568 351.169C426.568 351.169 439.173 339.272 439.516 337.867C439.86 336.462 437.768 336.826 432.522 337.867C427.276 338.908 424.195 348.91 423.154 351.086C422.113 353.261 426.568 351.169 426.568 351.169Z" fill="white" stroke="#263238" stroke-width="0.807072" stroke-linecap="round" stroke-linejoin="round"/>
<path d="M424.122 353.636C424.122 353.636 426.922 338.939 424.122 337.888C421.322 336.836 417.127 338.595 417.471 343.488C417.814 348.38 419.927 356.082 422.019 356.79C424.111 357.498 424.122 353.636 424.122 353.636Z" fill="white" stroke="#263238" stroke-width="0.807072" stroke-linecap="round" stroke-linejoin="round"/>
<path d="M421.321 354.677C421.321 354.677 416.429 345.58 414.327 342.082C412.224 338.585 408.373 340.334 406.624 343.831C404.876 347.328 417.47 358.528 419.229 358.528C420.988 358.528 421.321 354.677 421.321 354.677Z" fill="white" stroke="#263238" stroke-width="0.807072" stroke-linecap="round" stroke-linejoin="round"/>
<path d="M422.019 356.759C422.019 356.759 422.727 360.599 417.127 360.256C411.527 359.912 394.384 353.605 394.384 350.805C394.486 349.841 394.841 348.921 395.413 348.138C395.985 347.355 396.753 346.737 397.64 346.346C398.527 345.956 399.502 345.806 400.465 345.913C401.429 346.019 402.347 346.378 403.127 346.954C407.676 350.076 420.624 356.759 420.624 356.759H422.019Z" fill="white" stroke="#263238" stroke-width="0.807072" stroke-linecap="round" stroke-linejoin="round"/>
<path d="M417.127 358.84C417.127 358.84 406.281 358.84 397.184 355.718C388.087 352.595 385.287 355.02 384.589 358.164C383.892 361.307 397.184 363.368 406.625 363.368C416.065 363.368 422.019 359.215 417.127 358.84Z" fill="white" stroke="#263238" stroke-width="0.807072" stroke-linecap="round" stroke-linejoin="round"/>
<path d="M415.378 359.569C415.378 359.569 395.779 363.41 390.179 364.118C384.579 364.825 385.63 368.666 388.784 370.758C391.938 372.851 404.179 368.677 410.83 365.158C417.481 361.64 417.47 359.215 415.378 359.569Z" fill="white" stroke="#263238" stroke-width="0.807072" stroke-linecap="round" stroke-linejoin="round"/>
<path d="M411.444 359.933C412.412 362.567 418.033 362.91 423.934 360.704C429.836 358.497 433.916 354.594 432.948 351.96C431.98 349.327 426.36 348.983 420.458 351.19C414.556 353.397 410.476 357.3 411.444 359.933Z" fill="#18DADE" stroke="#263238" stroke-width="0.807072" stroke-linecap="round" stroke-linejoin="round"/>
<path d="M403.752 428.433C403.752 428.433 407.259 419.273 413.192 415.766C419.125 412.258 446.344 404.17 446.344 404.17C446.344 404.17 442.295 411.456 432.324 419.273C422.352 427.09 403.752 428.433 403.752 428.433Z" fill="#263238" stroke="#263238" stroke-width="0.807072" stroke-linecap="round" stroke-linejoin="round"/>
<path d="M407.53 412.258C407.53 412.258 409.414 408.49 404.293 400.402C400.517 394.663 396.343 389.195 391.802 384.04C391.802 384.04 388.909 395.271 391.084 401.516C393.26 407.761 407.53 412.258 407.53 412.258Z" fill="#263238" stroke="#263238" stroke-width="0.807072" stroke-linecap="round" stroke-linejoin="round"/>
<path d="M409.144 407.137C409.144 407.137 409.414 403.369 415.077 399.59C420.739 395.812 450.383 388.276 450.383 388.276C450.383 388.276 435.02 402.848 426.391 405.253C420.767 406.735 414.954 407.37 409.144 407.137Z" fill="#263238" stroke="#263238" stroke-width="0.807072" stroke-linecap="round" stroke-linejoin="round"/>
<path d="M95.1854 101.558C93.9737 101.621 92.7746 101.835 91.6152 102.193" stroke="#263238" stroke-width="0.403536" stroke-linecap="round" stroke-linejoin="round"/>
<path d="M86.7854 104.077C80.1655 107.335 70.4542 114.808 60.6492 131.972C43.2458 162.449 51.6664 198.307 72.4839 227.316C95.1749 258.802 214.178 281.816 259.06 241.971C303.942 202.127 337.844 209.059 365.958 240.618C391.209 268.972 386.567 345.361 329.735 369.312C272.904 393.262 256.166 357.466 260.569 341.499C264.972 325.533 294.658 306.776 313.654 333.995C327.768 354.25 284.509 415.183 249.234 427.975C222.234 437.791 191.872 441.09 179.069 442.1" stroke="#263238" stroke-width="0.403536" stroke-linecap="round" stroke-linejoin="round" stroke-dasharray="5.64 4.03"/>
<path d="M176.456 442.287C174.125 442.443 172.824 442.495 172.824 442.495" stroke="#263238" stroke-width="0.403536" stroke-linecap="round" stroke-linejoin="round"/>
<path d="M18.2754 443.547H481.952" stroke="#263238" stroke-width="0.807072" stroke-linecap="round" stroke-linejoin="round"/>
<path d="M388.597 323.243C386.368 321.45 384.506 319.244 383.111 316.747C380.873 312.678 377.22 308.826 376.606 311.262C375.992 313.698 378.74 319.589 380.873 321.213C383.007 322.837 387.379 324.669 387.982 324.335C388.166 324.217 388.318 324.056 388.425 323.865C388.532 323.675 388.591 323.461 388.597 323.243Z" stroke="#263238" stroke-width="0.807072" stroke-linecap="round" stroke-linejoin="round"/>
<path d="M388.597 323.243C386.368 321.45 384.506 319.244 383.111 316.747C380.873 312.678 377.22 308.826 376.606 311.262C375.992 313.698 378.74 319.589 380.873 321.213C383.007 322.837 387.379 324.669 387.982 324.335C388.166 324.217 388.318 324.056 388.425 323.865C388.532 323.675 388.591 323.461 388.597 323.243Z" stroke="#263238" stroke-width="0.605304" stroke-linecap="round" stroke-linejoin="round"/>
<path d="M383.923 326.698C383.923 326.698 383.007 327.406 381.081 326.698C379.156 325.991 374.576 325.991 372.338 329.238C370.1 332.486 370.413 337.461 371.422 339.699C371.792 340.708 372.346 341.64 373.056 342.447C373.056 342.447 372.952 343.154 373.254 343.352C373.556 343.55 375.086 341.27 375.086 341.27C375.086 341.27 376.814 337.409 378.739 336.389C380.665 335.369 383.819 335.067 384.631 332.735C385.443 330.404 385.547 327.614 383.923 326.698Z" fill="#18DADE" stroke="#263238" stroke-width="0.807072" stroke-linecap="round" stroke-linejoin="round"/>
<path d="M377.199 326.428C377.926 326.316 378.663 326.292 379.395 326.355C380.304 329.101 382.061 331.488 384.412 333.172C384.037 333.803 383.493 334.315 382.841 334.651C380.121 332.591 378.141 329.706 377.199 326.428Z" fill="#263238"/>
<path d="M370.996 332.392C371.193 331.54 371.501 330.718 371.912 329.946C373.552 332.632 375.825 334.876 378.532 336.482C377.923 336.902 377.392 337.423 376.96 338.023C374.618 336.56 372.591 334.646 370.996 332.392Z" fill="#263238"/>
<path d="M376.554 338.606C376.148 339.217 375.777 339.849 375.44 340.5C373.919 340.032 372.45 339.408 371.058 338.637C370.827 337.745 370.698 336.831 370.673 335.91C372.481 337.11 374.465 338.019 376.554 338.606Z" fill="#263238"/>
<path d="M373.296 343.352C372.994 343.154 373.098 342.447 373.098 342.447C372.582 341.883 372.167 341.235 371.87 340.531C372.748 341.075 373.667 341.552 374.618 341.957C374.107 342.624 373.441 343.487 373.296 343.352Z" fill="#263238"/>
<path d="M373.296 328.176C373.825 327.698 374.43 327.312 375.086 327.031C376.877 330.115 379.228 332.837 382.018 335.056C381.269 335.379 380.457 335.639 379.718 335.92C377.168 333.708 374.999 331.091 373.296 328.176Z" fill="#263238"/>
<path d="M396.82 327.406C396.82 327.406 394.28 323.648 390.418 322.837C389.573 322.633 388.694 322.613 387.84 322.776C386.986 322.939 386.177 323.282 385.466 323.782C384.755 324.282 384.158 324.928 383.717 325.677C383.275 326.426 382.998 327.26 382.903 328.124C382.601 331.57 383.944 335.535 386.359 336.649C388.774 337.763 396.31 339.907 397.434 334.016C398.558 328.124 396.82 327.406 396.82 327.406Z" fill="#C7C7C7" stroke="#263238" stroke-width="0.807072" stroke-linecap="round" stroke-linejoin="round"/>
<path d="M400.785 329.54C400.48 329.016 400.065 328.565 399.567 328.218C398.526 327.406 394.686 326.396 393.676 328.124C392.666 329.852 394.176 337.055 395.903 337.773C397.631 338.491 400.171 336.732 401.389 334.109C401.741 333.371 401.872 332.546 401.765 331.735C401.658 330.924 401.317 330.161 400.785 329.54Z" fill="#ABABAB" stroke="#263238" stroke-width="0.807072" stroke-linecap="round" stroke-linejoin="round"/>
<path d="M397.527 328.728L394.79 336.149C393.953 335.434 393.309 334.519 392.918 333.49C392.527 332.46 392.401 331.349 392.552 330.258C392.958 326.292 394.988 326.188 397.933 328.728" fill="#263238"/>
<path d="M400.785 329.134C400.785 329.134 403.419 331.476 402.409 333.297C401.399 335.119 400.879 335.535 400.327 335.837L399.817 336.149C399.817 336.149 401.399 331.07 400.785 329.134Z" fill="#263238"/>
<path d="M394.79 336.149C394.79 336.149 396.715 332.694 398.443 333.703C400.171 334.713 398.756 337.461 398.037 338.783C397.946 339.055 397.774 339.293 397.544 339.465C397.315 339.637 397.038 339.735 396.751 339.746C396.465 339.757 396.181 339.681 395.939 339.528C395.696 339.374 395.506 339.151 395.394 338.887C395.004 338.026 394.798 337.094 394.79 336.149Z" fill="#263238"/>
<path d="M400.785 329.467C400.865 329.465 400.942 329.435 401.004 329.384C401.664 328.746 402.428 328.225 403.262 327.843C403.6 327.868 403.93 327.949 404.241 328.083C405.456 328.601 406.803 328.725 408.092 328.437C408.174 328.41 408.242 328.353 408.283 328.277C408.324 328.202 408.334 328.113 408.311 328.031C408.299 327.988 408.278 327.948 408.251 327.914C408.223 327.879 408.189 327.85 408.15 327.829C408.112 327.807 408.069 327.794 408.025 327.789C407.981 327.785 407.937 327.789 407.894 327.802C406.738 328.041 405.535 327.922 404.449 327.458C404.047 327.275 403.61 327.183 403.169 327.187C402.2 327.585 401.317 328.164 400.567 328.895C400.536 328.925 400.512 328.96 400.496 328.999C400.48 329.039 400.471 329.081 400.471 329.124C400.471 329.166 400.48 329.208 400.496 329.248C400.512 329.287 400.536 329.323 400.567 329.353C400.622 329.417 400.7 329.458 400.785 329.467Z" fill="#263238"/>
<path d="M397.236 327.614C397.305 327.616 397.372 327.595 397.428 327.556C397.484 327.517 397.526 327.461 397.548 327.396C397.69 326.878 397.654 326.328 397.444 325.834C397.173 325.403 396.84 325.014 396.455 324.679C395.467 323.638 393.978 322.129 393.916 320.776C393.91 320.686 393.87 320.603 393.804 320.543C393.738 320.482 393.651 320.45 393.562 320.453C393.518 320.456 393.475 320.467 393.436 320.486C393.396 320.505 393.361 320.532 393.332 320.565C393.303 320.598 393.281 320.636 393.267 320.678C393.252 320.719 393.247 320.763 393.249 320.807C393.333 322.41 394.925 324.044 395.987 325.137C396.301 325.426 396.583 325.747 396.83 326.095C396.979 326.439 397.012 326.823 396.924 327.187C396.9 327.27 396.908 327.359 396.947 327.436C396.985 327.513 397.051 327.573 397.132 327.604L397.236 327.614Z" fill="#263238"/>
<path d="M389.096 336.753C389.096 336.753 389.2 342.238 389.096 343.966C388.992 345.694 387.014 348.13 386.765 347.422C386.515 346.714 387.805 344.299 387.805 344.299C387.805 344.299 388.003 338.21 388.003 337.013C388.003 335.816 389.096 336.753 389.096 336.753Z" fill="#263238"/>
<path d="M391.844 337.159C391.844 337.159 391.844 337.357 391.907 337.669C392.073 338.897 392.448 341.957 392.448 342.873C392.448 343.987 390.418 347.141 390.221 345.507C390.171 345.023 390.247 344.535 390.442 344.09C390.638 343.645 390.945 343.258 391.334 342.967C391.334 342.967 390.731 338.398 390.731 337.69" fill="#263238"/>
<path d="M385.568 331.861C385.568 331.861 382.83 337.95 381.81 339.48C380.79 341.01 378.053 343.54 377.137 343.342C376.221 343.144 377.543 341.812 378.563 340.896C379.583 339.98 381.404 338.564 381.404 338.564C381.404 338.564 382.216 333.891 382.934 332.673C383.652 331.455 384.922 331.122 385.568 331.861Z" fill="#263238"/>
<path d="M385.141 333.401C385.141 333.401 385.339 339.189 385.339 340.615C385.339 342.041 382.705 346.402 382.705 345.08C382.705 343.758 384.121 341.229 384.329 340.407C384.537 339.584 383.517 334.932 383.621 333.506C383.725 332.08 384.933 332.694 385.141 333.401Z" fill="#263238"/>
<path d="M382.195 333.911C382.195 333.911 379.447 340.001 378.438 341.531C377.428 343.061 374.68 345.59 373.764 345.392C372.848 345.195 374.17 343.862 375.19 342.946C376.21 342.03 378.032 340.615 378.032 340.615C378.032 340.615 378.844 335.941 379.552 334.723C380.259 333.506 381.54 333.172 382.195 333.911Z" fill="#263238"/>
<path d="M387.681 326.5C387.681 326.5 380.769 322.837 377.22 318.777C373.67 314.718 365.635 310.856 364.521 314.104C363.408 317.351 368.789 323.347 373.358 324.669C377.311 325.795 381.355 326.575 385.443 327C386.765 327 386.255 326.292 386.255 326.292L387.681 326.5Z" fill="white" stroke="#263238" stroke-width="0.605304" stroke-linecap="round" stroke-linejoin="round"/>
<path d="M382.716 312.647C383.289 314.509 384.101 316.29 385.13 317.945" stroke="#263238" stroke-width="0.403536" stroke-linecap="round" stroke-linejoin="round"/>
<path d="M384.527 311.314C384.762 313.364 385.332 315.361 386.213 317.226" stroke="#263238" stroke-width="0.403536" stroke-linecap="round" stroke-linejoin="round"/>
<path d="M363.179 318.309C363.179 318.309 366.801 323.378 370.652 325.428" stroke="#263238" stroke-width="0.403536" stroke-linecap="round" stroke-linejoin="round"/>
<path d="M364.625 322.535C366.272 324.347 368.288 325.785 370.538 326.75" stroke="#263238" stroke-width="0.403536" stroke-linecap="round" stroke-linejoin="round"/>
<path d="M117.169 91.7216C115.768 89.2282 114.856 86.4902 114.483 83.6548C113.911 79.0542 111.943 74.11 110.476 76.1501C109.008 78.1903 109.372 84.6749 110.757 86.9752C112.141 89.2755 115.514 92.5855 116.19 92.5335C116.408 92.4913 116.612 92.3948 116.783 92.2529C116.954 92.111 117.087 91.9282 117.169 91.7216Z" stroke="#263238" stroke-width="0.807072" stroke-linecap="round" stroke-linejoin="round"/>
<path d="M117.169 91.7216C115.768 89.2282 114.856 86.4902 114.483 83.6548C113.911 79.0542 111.943 74.11 110.476 76.1501C109.008 78.1903 109.372 84.6749 110.757 86.9752C112.141 89.2755 115.514 92.5855 116.19 92.5335C116.408 92.4913 116.612 92.3948 116.783 92.2529C116.954 92.111 117.087 91.9282 117.169 91.7216Z" stroke="#263238" stroke-width="0.605304" stroke-linecap="round" stroke-linejoin="round"/>
<path d="M111.548 93.1996C111.548 93.1996 110.434 93.5223 108.904 92.1587C107.374 90.7952 103.138 89.0361 99.8589 91.274C96.5802 93.5119 95.0085 98.2062 95.1334 100.642C95.1051 101.704 95.2709 102.762 95.6226 103.764C95.6226 103.764 95.2687 104.389 95.4768 104.691C95.685 104.993 97.9645 103.379 97.9645 103.379C97.9645 103.379 100.993 100.434 103.169 100.257C105.344 100.08 108.373 100.902 109.997 99.0389C111.621 97.1757 112.724 94.6464 111.548 93.1996Z" fill="#18DADE" stroke="#263238" stroke-width="0.807072" stroke-linecap="round" stroke-linejoin="round"/>
<path d="M105.407 90.4517C106.128 90.6184 106.826 90.87 107.488 91.2011C107.32 94.0896 108.071 96.9572 109.632 99.3928C109.05 99.8391 108.354 100.113 107.624 100.184C105.847 97.2669 105.068 93.8505 105.407 90.4517Z" fill="#263238"/>
<path d="M97.4648 93.6992C97.9645 92.9801 98.5558 92.3293 99.2239 91.7632C99.753 94.8659 101.032 97.7923 102.95 100.288C102.231 100.456 101.544 100.745 100.921 101.141C99.2863 98.9145 98.1116 96.3847 97.4648 93.6992Z" fill="#263238"/>
<path d="M100.296 101.527C99.694 101.944 99.1138 102.392 98.5579 102.869C97.32 101.873 96.1866 100.754 95.175 99.5281C95.2904 98.6108 95.5104 97.7098 95.8308 96.8427C97.0622 98.6302 98.5694 100.211 100.296 101.527Z" fill="#263238"/>
<path d="M95.4767 104.722C95.2686 104.42 95.6225 103.796 95.6225 103.796C95.3514 103.08 95.2036 102.323 95.1853 101.558C95.8209 102.392 96.5167 103.178 97.267 103.91C96.5384 104.358 95.6017 104.868 95.4767 104.722Z" fill="#263238"/>
<path d="M101.118 90.6182C101.787 90.3758 102.49 90.2423 103.2 90.2227C103.714 93.7523 104.89 97.1531 106.666 100.246C105.844 100.246 105.001 100.246 104.21 100.246C102.655 97.2294 101.611 93.9761 101.118 90.6182Z" fill="#263238"/>
<path d="M123.268 98.6225C123.268 98.6225 122.3 94.1988 119.021 92.013C118.315 91.5073 117.509 91.1582 116.656 90.9888C115.804 90.8194 114.926 90.8337 114.08 91.0307C113.234 91.2277 112.439 91.6029 111.749 92.1313C111.06 92.6597 110.491 93.329 110.08 94.0948C108.519 97.2174 108.28 101.381 110.08 103.296C111.881 105.211 118.126 109.999 121.342 104.941C124.559 99.882 123.268 98.6225 123.268 98.6225Z" fill="#C7C7C7" stroke="#263238" stroke-width="0.807072" stroke-linecap="round" stroke-linejoin="round"/>
<path d="M126.162 102.089C126.079 101.488 125.858 100.914 125.516 100.413C124.871 99.2783 121.665 96.9051 120.083 98.1333C118.501 99.3616 117.241 106.627 118.584 107.918C119.927 109.208 122.925 108.563 125.027 106.554C125.635 106.004 126.066 105.287 126.268 104.493C126.47 103.698 126.433 102.862 126.162 102.089Z" fill="#ABABAB" stroke="#263238" stroke-width="0.807072" stroke-linecap="round" stroke-linejoin="round"/>
<path d="M123.487 100.132L118.199 106.002C117.678 105.024 117.412 103.93 117.427 102.822C117.441 101.714 117.735 100.627 118.282 99.6634C120.125 96.1349 122.05 96.801 123.851 100.246" fill="#263238"/>
<path d="M126.307 101.745C126.307 101.745 127.9 104.868 126.307 106.211C124.715 107.553 124.059 107.72 123.476 107.813L122.893 107.907C122.893 107.907 126.162 103.723 126.307 101.745Z" fill="#263238"/>
<path d="M118.147 106.002C118.147 106.002 121.218 103.504 122.446 105.086C123.674 106.668 121.332 108.698 120.187 109.656C120.003 109.878 119.756 110.038 119.478 110.115C119.2 110.191 118.905 110.18 118.634 110.084C118.362 109.987 118.127 109.809 117.96 109.575C117.793 109.34 117.702 109.059 117.699 108.771C117.651 107.827 117.804 106.883 118.147 106.002Z" fill="#263238"/>
<path d="M126.183 102.016C126.221 102.032 126.261 102.04 126.302 102.04C126.343 102.04 126.384 102.032 126.422 102.016C127.274 101.67 128.179 101.47 129.097 101.422C129.395 101.58 129.668 101.78 129.909 102.016C130.851 102.938 132.054 103.549 133.354 103.764C133.397 103.769 133.441 103.764 133.483 103.751C133.524 103.738 133.562 103.717 133.595 103.689C133.628 103.661 133.655 103.626 133.675 103.587C133.694 103.548 133.706 103.506 133.708 103.463C133.712 103.42 133.708 103.377 133.696 103.337C133.684 103.296 133.663 103.258 133.636 103.225C133.609 103.192 133.576 103.165 133.538 103.145C133.5 103.125 133.459 103.113 133.417 103.109C132.235 102.91 131.144 102.35 130.294 101.506C129.997 101.199 129.643 100.952 129.253 100.777C128.203 100.796 127.166 101.008 126.193 101.402C126.113 101.432 126.047 101.493 126.01 101.57C125.974 101.648 125.968 101.737 125.995 101.818C126.01 101.863 126.035 101.903 126.067 101.938C126.099 101.972 126.139 101.998 126.183 102.016Z" fill="#263238"/>
<path d="M123.56 98.9973C123.624 99.0241 123.695 99.0296 123.762 99.0127C123.83 98.9958 123.89 98.9575 123.934 98.9036C124.26 98.4809 124.429 97.9587 124.413 97.4255C124.322 96.9218 124.157 96.4343 123.924 95.9787C123.383 94.6672 122.571 92.6896 123.008 91.4093C123.022 91.3683 123.029 91.3249 123.026 91.2815C123.023 91.2381 123.012 91.1957 122.993 91.1568C122.973 91.1179 122.946 91.0833 122.913 91.0552C122.88 91.027 122.841 91.0059 122.8 90.9929C122.718 90.9659 122.629 90.9713 122.552 91.0082C122.474 91.045 122.414 91.1104 122.383 91.1907C121.863 92.7104 122.737 94.8338 123.32 96.2285C123.504 96.6149 123.647 97.0196 123.747 97.4359C123.756 97.8073 123.647 98.1718 123.435 98.4768C123.403 98.506 123.378 98.5415 123.361 98.5809C123.344 98.6203 123.335 98.6628 123.335 98.7058C123.335 98.7488 123.344 98.7913 123.361 98.8307C123.378 98.8701 123.403 98.9056 123.435 98.9348L123.56 98.9973Z" fill="#263238"/>
<path d="M112.641 104.462C112.641 104.462 110.694 109.593 109.966 111.155C109.237 112.716 106.437 114.277 106.51 113.497C106.583 112.716 108.592 110.946 108.592 110.946C108.592 110.946 111.038 105.367 111.496 104.233C111.954 103.098 112.641 104.462 112.641 104.462Z" fill="#263238"/>
<path d="M115.035 105.846C115.035 105.846 115.035 106.044 114.91 106.356C114.598 107.553 113.817 110.52 113.494 111.363C113.078 112.404 110.028 114.569 110.434 112.987C110.569 112.52 110.822 112.095 111.168 111.754C111.514 111.414 111.943 111.168 112.412 111.04C112.412 111.04 113.546 106.564 113.806 105.909" fill="#263238"/>
<path d="M111.173 98.6225C111.173 98.6225 106.364 103.265 104.855 104.306C103.346 105.347 99.8588 106.689 99.0886 106.158C98.3183 105.628 100.025 104.899 101.316 104.42C102.607 103.941 104.824 103.306 104.824 103.306C104.824 103.306 107.301 99.2679 108.415 98.404C109.528 97.54 110.84 97.6753 111.173 98.6225Z" fill="#263238"/>
<path d="M110.195 99.8716C110.195 99.8716 108.238 105.326 107.717 106.648C107.197 107.97 103.117 111.051 103.606 109.822C104.095 108.594 106.354 106.762 106.843 106.086C107.332 105.409 108.123 100.694 108.748 99.4032C109.372 98.1125 110.278 99.143 110.195 99.8716Z" fill="#263238"/>
<path d="M107.27 99.2575C107.27 99.2575 102.471 103.9 100.962 104.941C99.4529 105.981 95.966 107.324 95.1958 106.793C94.4255 106.263 96.1326 105.534 97.4128 105.055C98.6931 104.576 100.921 103.941 100.921 103.941C100.921 103.941 103.408 99.9028 104.522 99.0285C105.636 98.1541 106.947 98.3311 107.27 99.2575Z" fill="#263238"/>
<path d="M115.16 94.3966C115.16 94.3966 110.101 88.4428 108.3 83.353C106.5 78.2631 100.483 71.7056 98.2352 74.3078C95.9869 76.91 98.7765 84.4771 102.534 87.402C105.805 89.9117 109.288 92.1336 112.943 94.0427C114.171 94.5319 113.984 93.6888 113.984 93.6888L115.16 94.3966Z" fill="white" stroke="#263238" stroke-width="0.605304" stroke-linecap="round" stroke-linejoin="round"/>
<path d="M115.639 79.6995C115.485 81.6431 115.58 83.5982 115.92 85.518" stroke="#263238" stroke-width="0.403536" stroke-linecap="round" stroke-linejoin="round"/>
<path d="M117.814 79.1374C117.278 81.1271 117.067 83.1904 117.189 85.2474" stroke="#263238" stroke-width="0.403536" stroke-linecap="round" stroke-linejoin="round"/>
<path d="M95.3831 77.7218C95.3831 77.7218 96.8611 83.7693 99.6923 87.0897" stroke="#263238" stroke-width="0.403536" stroke-linecap="round" stroke-linejoin="round"/>
<path d="M95.175 82.1768C96.03 84.4711 97.3683 86.5548 99.0991 88.2867" stroke="#263238" stroke-width="0.403536" stroke-linecap="round" stroke-linejoin="round"/>
</svg>
